HIERARCHY
ROOT Hips
{
	OFFSET 0.000000 0.000000 0.000000 
	CHANNELS 6 Xposition Yposition Zposition Zrotation Yrotation Xrotation
	JOINT LeftUpLeg
	{
		OFFSET 1.363060 -1.794630 0.839290 
		CHANNELS 3 Zrotation Yrotation Xrotation
		JOINT LeftLeg
		{
			OFFSET 2.448110 -6.726130 0.000000 
			CHANNELS 3 Zrotation Yrotation Xrotation
			JOINT LeftFoot
			{
				OFFSET 2.562200 -7.039590 0.000000 
				CHANNELS 3 Zrotation Yrotation Xrotation
				JOINT LeftToeBase
				{
					OFFSET 0.157640 -0.433110 2.322550 
					CHANNELS 3 Zrotation Yrotation Xrotation
					End Site
					{
						OFFSET 0.000000 0.000000 0.000000 
					}
				}
			}
		}
	}
	JOINT RightUpLeg
	{
		OFFSET -1.305520 -1.794630 0.839290 
		CHANNELS 3 Zrotation Yrotation Xrotation
		JOINT RightLeg
		{
			OFFSET -2.542530 -6.985550 0.000000 
			CHANNELS 3 Zrotation Yrotation Xrotation
			JOINT RightFoot
			{
				OFFSET -2.568260 -7.056230 0.000000 
				CHANNELS 3 Zrotation Yrotation Xrotation
				JOINT RightToeBase
				{
					OFFSET -0.164730 -0.452590 2.363150 
					CHANNELS 3 Zrotation Yrotation Xrotation
					End Site
					{
						OFFSET 0.000000 0.000000 0.000000 
					}
				}
			}
		}
	}
	JOINT Spine
	{
		OFFSET 0.028270 2.035590 -0.193380 
		CHANNELS 3 Zrotation Yrotation Xrotation
		JOINT Spine1
		{
			OFFSET 0.056720 2.048850 -0.042750 
			CHANNELS 3 Zrotation Yrotation Xrotation
			JOINT Neck1
			{
				OFFSET -0.054170 1.746240 0.172020 
				CHANNELS 3 Zrotation Yrotation Xrotation
				JOINT Head
				{
					OFFSET 0.104070 1.761360 -0.123970 
					CHANNELS 3 Zrotation Yrotation Xrotation
					End Site
					{
						OFFSET 0.000000 0.000000 0.000000 
					}
				}
			}
			JOINT LeftArm
			{
				OFFSET 3.362410 1.200890 -0.311210 
				CHANNELS 3 Zrotation Yrotation Xrotation
				JOINT LeftForeArm
				{
					OFFSET 4.983000 -0.000000 -0.000000 
					CHANNELS 3 Zrotation Yrotation Xrotation
					JOINT LeftHand
					{
						OFFSET 3.483560 -0.000000 -0.000000 
						CHANNELS 3 Zrotation Yrotation Xrotation
						JOINT LeftHandIndex1
						{
							OFFSET 0.715260 -0.000000 -0.000000 
							CHANNELS 3 Zrotation Yrotation Xrotation
							End Site
							{
								OFFSET 0.000000 0.000000 0.000000 
							}
						}
					}
				}
			}
			JOINT RightArm
			{
				OFFSET -3.136600 1.374050 -0.404650 
				CHANNELS 3 Zrotation Yrotation Xrotation
				JOINT RightForeArm
				{
					OFFSET -5.241900 -0.000000 -0.000000 
					CHANNELS 3 Zrotation Yrotation Xrotation
					JOINT RightHand
					{
						OFFSET -3.444170 -0.000000 -0.000000 
						CHANNELS 3 Zrotation Yrotation Xrotation
						JOINT RightHandIndex1
						{
							OFFSET -0.622530 -0.000000 -0.000000 
							CHANNELS 3 Zrotation Yrotation Xrotation
							End Site
							{
								OFFSET 0.000000 0.000000 0.000000 
							}
						}
					}
				}
			}
		}
	}
}
MOTION
Frames: 12
Frame Time: 0.041667
8.563671 16.968840 -1.703498 12.699650 81.508753 24.644380 -13.114537 16.548387 -41.012848 6.453691 17.129953 50.388074 3.939008 -5.290531 8.091395 0.000000 -0.035400 -0.097200 6.414065 0.853435 -40.531456 -8.822877 -19.957802 57.222435 -1.214830 -1.857085 0.733431 -0.580500 4.878800 -13.563300 0.422057 0.010341 -1.421742 1.329807 -0.514778 -5.006085 3.932455 4.097334 0.168310 -2.653900 1.542300 4.087900 -75.749609 -20.022368 29.848721 17.758375 -23.343210 -7.006507 -2.346884 1.884002 -21.289547 -7.125000 0.000000 0.000000 78.763668 9.874278 34.865653 -32.527390 40.917201 -20.484987 2.455792 0.162016 -20.346779 7.125000 0.000000 0.000000 
8.565528 16.968492 -1.727401 12.581871 81.509244 24.523964 -13.134972 16.422328 -41.004557 6.491157 17.182739 50.524948 3.938006 -5.300579 7.907006 0.001400 0.243200 0.668300 6.364703 0.775326 -40.537349 -8.809620 -19.926914 57.163731 -1.226941 -1.827926 0.879110 -0.574200 4.852800 -13.489200 0.415408 -0.025478 -1.427888 1.242842 -0.523853 -5.039140 3.912354 4.070746 0.148523 -2.665600 1.529000 4.042300 -75.644545 -19.333882 29.851618 17.966852 -23.707772 -7.170277 -2.369843 1.839190 -21.257055 -7.125000 0.000000 0.000000 78.824109 9.443803 35.172767 -33.367875 41.493828 -21.249127 2.446047 0.189154 -20.314110 7.125000 0.000000 0.000000 
8.565064 16.968724 -1.745154 11.560702 81.560794 23.502975 -13.027662 16.316709 -40.991366 6.531801 17.205747 50.630052 3.950383 -5.339050 7.826444 0.007800 0.571500 1.570600 6.450700 0.741433 -40.557037 -8.787182 -19.924612 57.113517 -1.204929 -1.870353 0.942858 -0.585500 4.899400 -13.622000 0.419216 -0.041488 -1.438429 1.221822 -0.530451 -5.058191 3.924401 4.079376 0.184976 -2.656700 1.537500 4.107900 -75.431311 -18.687004 29.934357 18.270026 -24.167260 -7.395259 -2.386561 1.760571 -21.458976 -7.125000 0.000000 0.000000 78.949128 9.071546 35.444921 -34.316107 42.101125 -22.116301 2.431444 0.247724 -20.282786 7.125000 0.000000 0.000000 
8.563671 16.966288 -1.768361 10.328904 81.554825 22.249238 -12.929057 16.291504 -40.976660 6.585420 17.216395 50.741848 3.887322 -5.186424 7.749845 0.003300 0.373400 1.026100 6.533028 0.745116 -40.551155 -8.760831 -19.931639 57.063128 -1.228065 -1.817945 1.009121 -0.593100 4.930600 -13.710800 0.411167 -0.013628 -1.438410 1.137241 -0.518074 -5.066397 3.958624 4.057121 0.160521 -2.624100 1.529500 4.126700 -75.167586 -18.183819 30.058974 18.543721 -24.566944 -7.598275 -2.370985 1.669571 -21.756358 -7.125000 0.000000 0.000000 79.050165 8.831444 35.659413 -35.142833 42.606259 -22.870925 2.424770 0.306299 -20.272452 7.125000 0.000000 0.000000 
8.561119 16.962690 -1.792148 9.356782 81.447191 21.299023 -12.914248 16.374819 -41.043630 6.636950 17.215787 50.841961 3.818043 -5.018892 7.681019 -0.000000 0.012900 0.035500 6.547971 0.876909 -40.601819 -8.733269 -19.958816 57.009753 -1.201462 -1.873437 1.050427 -0.612600 5.009300 -13.935100 0.401150 0.069508 -1.445315 1.071834 -0.476232 -5.107596 3.964798 4.085419 0.169550 -2.584900 1.545900 4.142600 -75.026531 -17.684471 30.169077 18.791846 -24.924967 -7.783608 -2.349565 1.586500 -21.827026 -7.125000 0.000000 0.000000 79.030813 8.532213 35.873568 -35.948847 43.099347 -23.611396 2.423556 0.334110 -20.210235 7.125000 0.000000 0.000000 
8.562859 16.963851 -1.808161 9.982460 81.216621 22.002292 -13.132625 16.521470 -41.220433 6.660851 17.236854 50.927490 3.799300 -4.984980 7.578335 0.000400 -0.134700 -0.370200 6.378475 1.025793 -40.688483 -8.722243 -19.959468 56.957655 -1.158370 -1.967514 1.123170 -0.645100 5.138200 -14.303000 0.400138 0.166059 -1.474822 1.175038 -0.414283 -5.173237 3.781088 4.171076 0.258702 -2.711400 1.572200 4.288300 -74.993251 -17.155609 30.323682 19.076951 -25.319179 -7.997161 -2.331820 1.509201 -21.823284 -7.125000 0.000000 0.000000 78.937624 8.127714 36.051826 -36.893788 43.662872 -24.502330 2.412063 0.359654 -20.082200 7.125000 0.000000 0.000000 
8.570285 16.964083 -1.824522 10.697096 81.060198 22.716432 -13.335425 16.641554 -41.302047 6.682071 17.264993 51.030526 3.855089 -5.138925 7.506425 0.000100 0.074200 0.204000 6.233984 1.000929 -40.662854 -8.720435 -19.926651 56.917905 -1.189530 -1.904451 1.211537 -0.670200 5.235100 -14.580300 0.390500 0.234812 -1.477365 1.215956 -0.361557 -5.213337 3.653814 4.237054 0.182949 -2.813500 1.587700 4.240500 -74.935813 -16.592511 30.514154 19.403077 -25.776060 -8.247894 -2.324157 1.439063 -21.969529 -7.125000 0.000000 0.000000 78.966907 7.774221 36.195699 -37.860622 44.222815 -25.427051 2.397264 0.412121 -19.965972 7.125000 0.000000 0.000000 
8.578176 16.957353 -1.847845 9.633147 81.023438 21.563971 -13.261238 16.705438 -41.221709 6.733351 17.263139 51.145315 3.895711 -5.238328 7.445886 0.002300 0.308700 0.848300 6.299111 0.978632 -40.570825 -8.701471 -19.928542 56.884740 -1.238342 -1.799451 1.266701 -0.661000 5.199800 -14.479300 0.376661 0.299684 -1.459124 1.100930 -0.325659 -5.249788 3.753512 4.217982 0.103964 -2.716100 1.588800 4.090700 -74.944821 -15.911616 30.518748 19.757689 -26.273426 -8.529009 -2.323282 1.396531 -21.914867 -7.125000 0.000000 0.000000 79.065421 7.400615 36.489466 -38.874936 44.799199 -26.380816 2.400525 0.475251 -20.052689 7.125000 0.000000 0.000000 
8.583861 16.952828 -1.872560 8.889291 80.951483 20.806202 -13.243454 16.725643 -41.211416 6.777257 17.273453 51.243919 3.851312 -5.125816 7.314503 0.001300 0.228600 0.628100 6.291722 1.022692 -40.562546 -8.675115 -19.930604 56.822684 -1.277337 -1.715470 1.365737 -0.632600 5.088900 -14.162400 0.364358 0.364798 -1.462346 0.992279 -0.293129 -5.260092 3.756306 4.075004 0.147315 -2.697600 1.522400 4.117600 -74.970464 -15.341066 30.540161 20.055239 -26.676988 -8.766106 -2.319328 1.370833 -21.714212 -7.125000 0.000000 0.000000 79.106091 7.098816 36.779111 -39.766454 45.284757 -27.197139 2.421878 0.488440 -20.229125 7.125000 0.000000 0.000000 
8.582005 16.957237 -1.890081 9.642911 80.916325 21.612450 -13.402175 16.630162 -41.285144 6.766421 17.320335 51.275712 3.793052 -4.999480 7.248288 0.001400 0.240200 0.659800 6.148257 0.935940 -40.590906 -8.655262 -19.873807 56.718832 -1.288228 -1.694487 1.525553 -0.633700 5.093600 -14.175600 0.349083 0.395713 -1.470870 0.981581 -0.265767 -5.270848 3.687415 3.969593 0.091133 -2.747400 1.459100 4.104300 -74.815515 -15.026138 30.851014 20.317044 -27.011526 -8.966201 -2.325480 1.321115 -21.908904 -7.125000 0.000000 0.000000 79.118965 6.968140 36.855247 -40.518147 45.676822 -27.901106 2.428476 0.472570 -20.102371 7.125000 0.000000 0.000000 
8.579336 16.964779 -1.905514 9.847191 80.941727 21.841398 -13.471948 16.541247 -41.311745 6.752607 17.347402 51.278359 3.778090 -4.971207 7.219863 0.004100 0.413100 1.134900 6.101377 0.835516 -40.575479 -8.625251 -19.824623 56.602040 -1.255123 -1.767959 1.642947 -0.661600 5.202300 -14.486300 0.337947 0.418877 -1.466183 1.004888 -0.244738 -5.289044 3.775150 4.009049 -0.024848 -2.653100 1.482100 3.973100 -74.611408 -14.681484 31.196738 20.633162 -27.411472 -9.208050 -2.343922 1.257302 -22.303548 -7.125000 0.000000 0.000000 79.117597 6.826707 36.926608 -41.358978 46.120732 -28.726008 2.411469 0.480141 -19.819057 7.125000 0.000000 0.000000 
8.582353 16.970697 -1.924775 9.286706 80.927931 21.290737 -13.471433 16.565944 -41.314473 6.771106 17.348273 51.317172 3.793293 -4.998062 7.101573 0.005400 0.474900 1.305000 6.108359 0.838162 -40.545252 -8.584715 -19.808964 56.487109 -1.225008 -1.836108 1.712551 -0.673400 5.247300 -14.615200 0.328161 0.442839 -1.460547 0.966938 -0.231670 -5.234035 3.852895 3.990708 -0.005808 -2.571400 1.483900 3.956200 -74.512722 -14.167206 31.343476 21.036556 -27.914339 -9.524821 -2.347509 1.185328 -22.446237 -7.125000 0.000000 0.000000 79.161441 6.658939 37.113176 -42.265186 46.587836 -29.607646 2.403213 0.507766 -19.681722 7.125000 0.000000 0.000000 
